<svg width="158" height="47" viewBox="0 0 158 47" fill="none" xmlns="http://www.w3.org/2000/svg">
<path d="M156.953 41.2886C156.953 41.8778 156.837 42.4612 156.611 43.0055C156.385 43.5498 156.054 44.0443 155.637 44.4607C155.22 44.8771 154.726 45.2073 154.181 45.4324C153.636 45.6574 153.052 45.7729 152.463 45.7723H5.53845C4.34762 45.7736 3.20505 45.3019 2.36202 44.4611C1.51899 43.6203 1.04452 42.4791 1.04297 41.2886V5.53209C1.04452 4.34104 1.5188 3.19928 2.36166 2.35751C3.20453 1.51575 4.34708 1.04279 5.53845 1.04248H152.462C153.052 1.04248 153.636 1.15862 154.18 1.38425C154.725 1.60989 155.22 1.94061 155.637 2.35753C156.054 2.77444 156.385 3.26938 156.61 3.81408C156.836 4.35878 156.952 4.94256 156.952 5.53209L156.953 41.2886Z" fill="white"/>
<path d="M152.462 46.8149H5.53768C4.07071 46.8146 2.66378 46.2325 1.6256 45.1963C0.587418 44.1602 0.00279124 42.7546 0 41.288L0 5.5327C0.00217017 4.06539 0.586411 2.65886 1.62456 1.62164C2.6627 0.584432 4.06998 0.00123846 5.53768 0L152.461 0C153.929 0.00185642 155.336 0.585248 156.374 1.62233C157.412 2.65941 157.996 4.06558 157.999 5.5327V41.288C158.001 44.3365 155.513 46.8149 152.462 46.8149Z" fill="#A6A6A6"/>
<path d="M156.953 41.2886C156.953 41.8778 156.837 42.4612 156.611 43.0055C156.385 43.5498 156.054 44.0443 155.637 44.4607C155.22 44.8771 154.726 45.2073 154.181 45.4324C153.636 45.6574 153.052 45.7729 152.463 45.7723H5.53845C4.34762 45.7736 3.20505 45.3019 2.36202 44.4611C1.51899 43.6203 1.04452 42.4791 1.04297 41.2886V5.53209C1.04452 4.34104 1.5188 3.19928 2.36166 2.35751C3.20453 1.51575 4.34708 1.04279 5.53845 1.04248H152.462C153.052 1.04248 153.636 1.15862 154.18 1.38425C154.725 1.60989 155.22 1.94061 155.637 2.35753C156.054 2.77444 156.385 3.26938 156.61 3.81408C156.836 4.35878 156.952 4.94256 156.952 5.53209L156.953 41.2886Z" fill="black"/>
<path d="M35.2791 23.1606C35.2452 19.3875 38.3694 17.5518 38.5123 17.4664C36.7429 14.8873 34.0004 14.535 33.0367 14.5069C30.7333 14.2645 28.499 15.8848 27.3257 15.8848C26.1289 15.8848 24.3221 14.5303 22.3747 14.5701C19.8687 14.6087 17.5244 16.0592 16.2386 18.3116C13.5851 22.9042 15.5641 29.6533 18.1064 33.3656C19.3781 35.1848 20.8641 37.2136 22.8091 37.1422C24.712 37.065 25.4228 35.9306 27.7191 35.9306C29.9944 35.9306 30.6619 37.1422 32.6456 37.0966C34.6878 37.065 35.9735 35.2703 37.2008 33.4358C38.6704 31.3531 39.2606 29.2997 39.284 29.1944C39.2371 29.178 35.319 27.6819 35.2791 23.1606ZM31.5319 12.0648C32.5554 10.7852 33.2556 9.04441 33.0613 7.27783C31.5799 7.34339 29.7274 8.30219 28.6606 9.55366C27.7168 10.6565 26.8737 12.464 27.0915 14.1639C28.7555 14.2879 30.464 13.3245 31.5319 12.0648Z" fill="white"/>
<path d="M152.463 0H73.7656L104.59 46.8149H152.463C153.93 46.8136 155.337 46.2308 156.375 45.194C157.413 44.1573 157.998 42.7514 158.001 41.2845V5.5327C157.998 4.06549 157.414 2.65913 156.376 1.62199C155.338 0.58484 153.931 0.00154756 152.463 0Z" fill="url(#paint0_linear_3_102)"/>
<path d="M62.8418 36.8817H60.1824L58.7257 32.3055H53.6623L52.2746 36.8817H49.6855L54.7033 21.3022H57.8018L62.8418 36.8817ZM58.2866 30.3856L56.9692 26.3174C56.8298 25.9018 56.5675 24.9231 56.1834 23.3825H56.1366C55.982 24.0451 55.735 25.0238 55.3965 26.3174L54.1014 30.3856H58.2866ZM75.7205 31.1266C75.7205 33.0372 75.2017 34.5474 74.163 35.656C73.2333 36.6429 72.0775 37.1358 70.6992 37.1358C69.2109 37.1358 68.1406 36.6055 67.4907 35.5425V41.4369H64.9941V29.3401C64.9941 28.1402 64.9625 26.9098 64.9016 25.6478H67.0972L67.2365 27.4284H67.2834C68.116 26.0868 69.3795 25.416 71.0751 25.416C72.4007 25.416 73.5073 25.9393 74.3926 26.987C75.2767 28.0372 75.7205 29.4162 75.7205 31.1266ZM73.1771 31.2179C73.1771 30.1245 72.9311 29.2231 72.437 28.5125C71.8971 27.7738 71.1723 27.4038 70.2636 27.4038C69.6476 27.4038 69.0879 27.6099 68.5879 28.0161C68.0867 28.4258 67.7588 28.9608 67.6054 29.6234C67.5369 29.8713 67.498 30.1263 67.4895 30.3832V32.2575C67.4895 33.0735 67.7401 33.763 68.2413 34.3273C68.7425 34.8892 69.3935 35.1714 70.1945 35.1714C71.1348 35.1714 71.8667 34.8073 72.3901 34.085C72.9147 33.3603 73.1771 32.405 73.1771 31.2179ZM88.6448 31.1266C88.6448 33.0372 88.1261 34.5474 87.0874 35.656C86.1565 36.6429 85.0019 37.1358 83.6224 37.1358C82.1341 37.1358 81.0638 36.6055 80.4139 35.5425V41.4369H77.9173V29.3401C77.9173 28.1402 77.8857 26.9098 77.8248 25.6478H80.0204L80.1597 27.4284H80.2066C81.038 26.0868 82.3015 25.416 83.9983 25.416C85.3227 25.416 86.4293 25.9393 87.3169 26.987C88.1999 28.0372 88.6448 29.4162 88.6448 31.1266ZM86.1003 31.2179C86.1003 30.1245 85.8532 29.2231 85.359 28.5125C84.8192 27.7738 84.0967 27.4038 83.188 27.4038C82.572 27.4038 82.0123 27.6099 81.5099 28.0161C81.0087 28.4258 80.682 28.9608 80.5286 29.6234C80.4525 29.9325 80.4115 30.1842 80.4115 30.3832V32.2575C80.4115 33.0735 80.6633 33.763 81.1621 34.3273C81.6633 34.8881 82.3144 35.1714 83.1177 35.1714C84.0592 35.1714 84.7911 34.8073 85.3133 34.085C85.8379 33.3603 86.1003 32.405 86.1003 31.2179ZM103.095 32.5115C103.095 33.8379 102.631 34.9162 101.71 35.7485C100.696 36.657 99.2799 37.1124 97.4648 37.1124C95.788 37.1124 94.4437 36.7893 93.4296 36.1419L94.0069 34.0615C95.1018 34.7101 96.3044 35.0332 97.6136 35.0332C98.555 35.0332 99.2869 34.8202 99.8092 34.3975C100.333 33.9737 100.597 33.4071 100.597 32.7C100.597 32.0667 100.378 31.5364 99.9485 31.1044C99.5164 30.6736 98.8021 30.272 97.7986 29.9032C95.0701 28.8859 93.7048 27.398 93.7048 25.4406C93.7048 24.1622 94.1872 23.1156 95.1498 22.2972C96.1123 21.4801 97.3887 21.0715 98.9766 21.0715C100.395 21.0715 101.576 21.3185 102.514 21.8114L101.888 23.8461C101.005 23.3684 100.008 23.1296 98.8935 23.1296C98.0129 23.1296 97.322 23.3462 96.8278 23.777C96.4121 24.1622 96.2013 24.6316 96.2013 25.1889C96.2013 25.8035 96.4414 26.3139 96.9192 26.7143C97.3337 27.083 98.0902 27.4846 99.1839 27.9154C100.526 28.4563 101.512 29.0861 102.143 29.8096C102.779 30.5331 103.095 31.4357 103.095 32.5115ZM111.371 27.5209H108.619V32.9751C108.619 34.3624 109.103 35.0543 110.075 35.0543C110.522 35.0543 110.892 35.0168 111.184 34.9384L111.253 36.8337C110.762 37.0175 110.114 37.11 109.312 37.11C108.326 37.11 107.555 36.8092 106.999 36.2074C106.445 35.6057 106.167 34.5977 106.167 33.1788V27.5162H104.527V25.6431H106.167V23.5862L108.619 22.8463V25.6431H111.371V27.5209ZM123.762 31.1723C123.762 32.899 123.268 34.3168 122.282 35.4254C121.25 36.5668 119.878 37.1358 118.167 37.1358C116.516 37.1358 115.203 36.5891 114.224 35.4968C113.245 34.4022 112.756 33.0231 112.756 31.3596C112.756 29.6188 113.262 28.1929 114.27 27.0842C115.28 25.9744 116.641 25.4195 118.352 25.4195C120.001 25.4195 121.325 25.9674 122.328 27.0608C123.285 28.1214 123.762 29.4912 123.762 31.1723ZM121.174 31.2296C121.174 30.2006 120.952 29.3179 120.506 28.5792C119.982 27.6871 119.233 27.2411 118.262 27.2411C117.262 27.2411 116.495 27.6871 115.973 28.5792C115.525 29.3179 115.303 30.2158 115.303 31.2765C115.303 32.3067 115.525 33.1917 115.973 33.9281C116.512 34.8202 117.265 35.2662 118.241 35.2662C119.195 35.2662 119.943 34.8108 120.484 33.9058C120.943 33.1496 121.174 32.261 121.174 31.2296ZM131.881 27.8428C131.621 27.796 131.358 27.7728 131.094 27.7738C130.215 27.7738 129.536 28.1039 129.059 28.7688C128.644 29.3542 128.436 30.0941 128.436 30.9873V36.8817H125.939V29.1856C125.941 28.0063 125.917 26.8271 125.866 25.6489H128.041L128.132 27.7983H128.201C128.466 27.0596 128.881 26.4637 129.45 26.0177C129.971 25.628 130.604 25.4169 131.254 25.416C131.485 25.416 131.693 25.4324 131.878 25.4616L131.881 27.8428ZM143.046 30.7333C143.052 31.1127 143.022 31.4918 142.955 31.8653H135.465C135.493 32.9751 135.856 33.8251 136.552 34.4104C137.183 34.9325 137.999 35.1948 139.002 35.1948C140.11 35.1948 141.122 35.0192 142.032 34.6645L142.423 36.3959C141.36 36.8595 140.105 37.0901 138.656 37.0901C136.914 37.0901 135.546 36.5774 134.551 35.5542C133.558 34.5298 133.06 33.1531 133.06 31.4287C133.06 29.7358 133.522 28.3251 134.449 27.2001C135.418 25.999 136.729 25.3984 138.377 25.3984C139.997 25.3984 141.223 25.999 142.055 27.2001C142.715 28.1519 143.046 29.3319 143.046 30.7333ZM140.666 30.0859C140.683 29.3448 140.519 28.7068 140.181 28.1671C139.749 27.4717 139.083 27.1252 138.192 27.1252C137.376 27.1252 136.711 27.4635 136.205 28.1425C135.789 28.6822 135.542 29.3308 135.466 30.0835L140.666 30.0859Z" fill="white"/>
<path d="M52.9416 15.7937C52.2472 15.7937 51.6465 15.7597 51.1465 15.7023V8.1701C51.8458 8.0621 52.5525 8.00887 53.2601 8.01089C56.1233 8.01089 57.4418 9.41923 57.4418 11.715C57.4418 14.3631 55.8844 15.7937 52.9416 15.7937ZM53.3609 8.97671C52.9744 8.97671 52.6454 9.00012 52.3725 9.05632V14.7822C52.5201 14.8056 52.8035 14.8161 53.2016 14.8161C55.0775 14.8161 56.1455 13.7485 56.1455 11.7489C56.1455 9.96595 55.1794 8.97671 53.3609 8.97671ZM61.5508 15.851C59.9372 15.851 58.8915 14.6464 58.8915 13.0109C58.8915 11.3064 59.9595 10.0912 61.6422 10.0912C63.2324 10.0912 64.3015 11.2385 64.3015 12.9208C64.3015 14.6464 63.1996 15.851 61.5508 15.851ZM61.5977 10.988C60.7112 10.988 60.1433 11.8168 60.1433 12.9758C60.1433 14.1125 60.7229 14.9414 61.586 14.9414C62.449 14.9414 63.0287 14.0552 63.0287 12.9524C63.0287 11.8285 62.4607 10.988 61.5977 10.988ZM73.5033 10.2048L71.7761 15.7258H70.6507L69.9352 13.3282C69.7573 12.7417 69.6092 12.1466 69.4914 11.5452H69.468C69.3778 12.1469 69.2069 12.7499 69.0254 13.3282L68.2642 15.7258H67.1272L65.5018 10.2048H66.763L67.3883 12.8295C67.5358 13.4546 67.66 14.0446 67.763 14.6019H67.7864C67.8766 14.1371 68.0242 13.5565 68.2408 12.8412L69.0254 10.2059H70.0254L70.776 12.785C70.9575 13.4101 71.1051 14.0236 71.2198 14.6031H71.2526C71.3322 14.0353 71.4575 13.4324 71.6273 12.785L72.2983 10.2059L73.5033 10.2048ZM79.8618 15.7258H78.6346V12.5555C78.6346 11.5792 78.2599 11.0898 77.521 11.0898C76.7938 11.0898 76.2938 11.715 76.2938 12.442V15.7258H75.0666V11.7829C75.0666 11.2947 75.0549 10.7714 75.0209 10.2036H76.1006L76.158 11.0559H76.1919C76.5221 10.4658 77.1919 10.0912 77.9426 10.0912C79.1018 10.0912 79.863 10.9774 79.863 12.4197L79.8618 15.7258ZM83.246 15.7258H82.0177V7.67139H83.246V15.7258ZM87.7204 15.851C86.108 15.851 85.0611 14.6464 85.0611 13.0109C85.0611 11.3064 86.129 10.0912 87.8106 10.0912C89.402 10.0912 90.47 11.2385 90.47 12.9208C90.4711 14.6464 89.368 15.851 87.7204 15.851ZM87.7661 10.988C86.8797 10.988 86.3117 11.8168 86.3117 12.9758C86.3117 14.1125 86.8925 14.9414 87.7532 14.9414C88.6174 14.9414 89.1959 14.0552 89.1959 12.9524C89.1971 11.8285 88.6303 10.988 87.7661 10.988ZM95.3085 15.7258L95.2195 15.0901H95.1868C94.812 15.6017 94.2652 15.851 93.5719 15.851C92.5824 15.851 91.8798 15.158 91.8798 14.2261C91.8798 12.8634 93.0614 12.1587 95.1071 12.1587V12.0568C95.1071 11.3298 94.7219 10.9657 93.9607 10.9657C93.4162 10.9657 92.9384 11.1027 92.518 11.3755L92.2686 10.5689C92.7792 10.2504 93.4162 10.0912 94.1645 10.0912C95.6071 10.0912 96.3355 10.8522 96.3355 12.3752V14.4087C96.3355 14.966 96.3601 15.398 96.4151 15.7269L95.3085 15.7258ZM95.1399 12.9758C93.7769 12.9758 93.093 13.3059 93.093 14.0891C93.093 14.6686 93.4455 14.9519 93.935 14.9519C94.5591 14.9519 95.1399 14.4755 95.1399 13.8281V12.9758ZM102.295 15.7258L102.237 14.8395H102.203C101.851 15.5092 101.258 15.851 100.431 15.851C99.0991 15.851 98.1131 14.6803 98.1131 13.0332C98.1131 11.3064 99.1354 10.09 100.531 10.09C101.27 10.09 101.794 10.3394 102.089 10.8405H102.113V7.67139H103.342V14.2378C103.342 14.7716 103.355 15.2715 103.387 15.7258H102.295ZM102.113 12.4771C102.113 11.7044 101.602 11.0453 100.82 11.0453C99.9106 11.0453 99.3544 11.8519 99.3544 12.9875C99.3544 14.1008 99.9317 14.863 100.796 14.863C101.568 14.863 102.113 14.1922 102.113 13.3972V12.4771ZM111.13 15.851C109.517 15.851 108.472 14.6464 108.472 13.0109C108.472 11.3064 109.54 10.0912 111.221 10.0912C112.813 10.0912 113.881 11.2385 113.881 12.9208C113.882 14.6464 112.78 15.851 111.13 15.851ZM111.176 10.988C110.29 10.988 109.722 11.8168 109.722 12.9758C109.722 14.1125 110.302 14.9414 111.164 14.9414C112.028 14.9414 112.607 14.0552 112.607 12.9524C112.609 11.8285 112.041 10.988 111.176 10.988ZM120.48 15.7258H119.252V12.5555C119.252 11.5792 118.877 11.0898 118.138 11.0898C117.411 11.0898 116.912 11.715 116.912 12.442V15.7258H115.684V11.7829C115.684 11.2947 115.672 10.7714 115.638 10.2036H116.718L116.775 11.0559H116.809C117.138 10.4658 117.809 10.09 118.559 10.09C119.718 10.09 120.48 10.9763 120.48 12.4185V15.7258ZM128.737 11.1249H127.387V13.8058C127.387 14.4883 127.624 14.829 128.101 14.829C128.318 14.829 128.499 14.8056 128.646 14.7716L128.68 15.7035C128.442 15.7948 128.124 15.8405 127.728 15.8405C126.761 15.8405 126.182 15.3066 126.182 13.9088V11.1249H125.376V10.2048H126.182V9.19329L127.387 8.8292V10.2036H128.737V11.1249ZM135.234 15.7258H134.008V12.5789C134.008 11.5909 133.634 11.091 132.894 11.091C132.258 11.091 131.666 11.523 131.666 12.3975V15.7258H130.44V7.67139H131.666V10.988H131.69C132.077 10.3862 132.637 10.09 133.351 10.09C134.52 10.09 135.234 10.9985 135.234 12.442V15.7258ZM141.89 13.2603H138.207C138.231 14.3057 138.923 14.8957 139.947 14.8957C140.492 14.8957 140.993 14.8044 141.436 14.6347L141.626 15.4869C141.104 15.7141 140.489 15.8276 139.774 15.8276C138.047 15.8276 137.024 14.7365 137.024 13.0449C137.024 11.352 138.071 10.0795 139.636 10.0795C141.047 10.0795 141.932 11.1249 141.932 12.7042C141.94 12.8906 141.926 13.0772 141.89 13.2603ZM140.765 12.3858C140.765 11.5335 140.335 10.9318 139.55 10.9318C138.845 10.9318 138.288 11.5452 138.208 12.3858H140.765Z" fill="white"/>
<defs>
<linearGradient id="paint0_linear_3_102" x1="115.882" y1="46.9392" x2="115.882" y2="-121.898" gradientUnits="userSpaceOnUse">
<stop stop-color="#1A1A1A" stop-opacity="0.1"/>
<stop offset="0.123" stop-color="#212121" stop-opacity="0.151"/>
<stop offset="0.308" stop-color="#353535" stop-opacity="0.227"/>
<stop offset="0.532" stop-color="#575757" stop-opacity="0.318"/>
<stop offset="0.783" stop-color="#858585" stop-opacity="0.421"/>
<stop offset="1" stop-color="#B3B3B3" stop-opacity="0.51"/>
</linearGradient>
</defs>
</svg>
