<svg width="24" height="25" viewBox="0 0 24 25" fill="none" xmlns="http://www.w3.org/2000/svg">
<path d="M21.8725 1.57129H2.13063C1.45442 1.57129 0.90625 2.11946 0.90625 2.79566V22.5375C0.90625 23.2137 1.45442 23.7619 2.13063 23.7619H21.8725C22.5487 23.7619 23.0969 23.2137 23.0969 22.5375V2.79566C23.0969 2.11946 22.5487 1.57129 21.8725 1.57129Z" fill="#3D5A98"/>
<path d="M16.2159 23.7598V15.1667H19.0997L19.5309 11.8179H16.2159V9.68045C16.2159 8.71107 16.4859 8.0492 17.8753 8.0492H19.6491V5.0492C18.7901 4.95985 17.927 4.91728 17.0634 4.9217C14.5097 4.9217 12.7509 6.47795 12.7509 9.34857V11.8179H9.86719V15.1667H12.7509V23.7598H16.2159Z" fill="white"/>
</svg>
