<svg width="786" height="140" viewBox="0 0 786 140" fill="none" xmlns="http://www.w3.org/2000/svg">
<circle cx="230.5" cy="13" r="4" fill="#EF98A5"/>
<circle cx="259.5" cy="13" r="5" fill="#EF98A5"/>
<circle cx="287.5" cy="13" r="3" fill="#EF98A5"/>
<circle cx="319" cy="13" r="8.5" fill="#EF98A5"/>
<circle cx="356" cy="13" r="8.5" fill="#EF98A5"/>
<circle cx="393" cy="13" r="8.5" fill="#EF98A5"/>
<circle cx="430" cy="13" r="8.5" fill="#EF98A5"/>
<circle cx="467" cy="13" r="8.5" fill="#EF98A5"/>
<circle cx="500.5" cy="13" r="5" fill="#EF98A5"/>
<circle cx="528.5" cy="13" r="3" fill="#EF98A5"/>
<circle cx="555.5" cy="13" r="4" fill="#EF98A5"/>
<circle cx="193.5" cy="51" r="4" fill="#EF98A5"/>
<circle cx="222.5" cy="51" r="5" fill="#EF98A5"/>
<circle cx="250.5" cy="51" r="3" fill="#EF98A5"/>
<circle cx="282" cy="51" r="8.5" fill="#EF98A5"/>
<circle cx="319" cy="51" r="8.5" fill="#EF98A5"/>
<circle cx="356" cy="51" r="8.5" fill="#EF98A5"/>
<circle cx="393" cy="51" r="8.5" fill="#EF98A5"/>
<circle cx="430" cy="51" r="8.5" fill="#EF98A5"/>
<circle cx="467" cy="51" r="8.5" fill="#EF98A5"/>
<circle cx="504" cy="51" r="8.5" fill="#EF98A5"/>
<circle cx="537.5" cy="51" r="5" fill="#EF98A5"/>
<circle cx="565.5" cy="51" r="3" fill="#EF98A5"/>
<circle cx="592.5" cy="51" r="4" fill="#EF98A5"/>
<circle cx="152" cy="89" r="4" fill="#EF98A5"/>
<circle cx="181" cy="89" r="5" fill="#EF98A5"/>
<circle cx="209" cy="89" r="3" fill="#EF98A5"/>
<circle cx="237" cy="89" r="5" fill="#EF98A5"/>
<circle cx="267" cy="89" r="5" fill="#EF98A5"/>
<circle cx="300.5" cy="89" r="8.5" fill="#EF98A5"/>
<circle cx="337.5" cy="89" r="8.5" fill="#EF98A5"/>
<circle cx="374.5" cy="89" r="8.5" fill="#EF98A5"/>
<circle cx="411.5" cy="89" r="8.5" fill="#EF98A5"/>
<circle cx="448.5" cy="89" r="8.5" fill="#EF98A5"/>
<circle cx="485.5" cy="89" r="8.5" fill="#EF98A5"/>
<circle cx="519" cy="89" r="5" fill="#EF98A5"/>
<circle cx="549" cy="89" r="5" fill="#EF98A5"/>
<circle cx="579" cy="89" r="5" fill="#EF98A5"/>
<circle cx="607" cy="89" r="3" fill="#EF98A5"/>
<circle cx="634" cy="89" r="4" fill="#EF98A5"/>
<circle cx="4" cy="127" r="4" fill="#EF98A5"/>
<circle cx="33" cy="127" r="5" fill="#EF98A5"/>
<circle cx="61" cy="127" r="3" fill="#EF98A5"/>
<circle cx="92.5" cy="127" r="8.5" fill="#EF98A5"/>
<circle cx="129.5" cy="127" r="8.5" fill="#EF98A5"/>
<circle cx="166.5" cy="127" r="8.5" fill="#EF98A5"/>
<circle cx="203.5" cy="127" r="8.5" fill="#EF98A5"/>
<circle cx="240.5" cy="127" r="8.5" fill="#EF98A5"/>
<circle cx="277.5" cy="127" r="8.5" fill="#EF98A5"/>
<circle cx="314.5" cy="127" r="8.5" fill="#EF98A5"/>
<circle cx="351.5" cy="127" r="8.5" fill="#EF98A5"/>
<circle cx="388.5" cy="127" r="8.5" fill="#EF98A5"/>
<circle cx="425.5" cy="127" r="8.5" fill="#EF98A5"/>
<circle cx="462.5" cy="127" r="8.5" fill="#EF98A5"/>
<circle cx="499.5" cy="127" r="8.5" fill="#EF98A5"/>
<circle cx="533" cy="127" r="5" fill="#EF98A5"/>
<circle cx="561" cy="127" r="3" fill="#EF98A5"/>
<circle cx="588" cy="127" r="4" fill="#EF98A5"/>
</svg>
