<svg width="158" height="47" viewBox="0 0 158 47" fill="none" xmlns="http://www.w3.org/2000/svg">
<path d="M152.148 46.8148H5.85185C2.57481 46.8148 0 44.24 0 40.963V5.85185C0 2.57481 2.57481 0 5.85185 0H152.148C155.425 0 158 2.57481 158 5.85185V40.963C158 44.24 155.425 46.8148 152.148 46.8148Z" fill="black"/>
<path d="M152.148 0.936296C154.84 0.936296 157.064 3.16 157.064 5.85185V40.963C157.064 43.6548 154.84 45.8785 152.148 45.8785H5.85185C3.16 45.8785 0.936296 43.6548 0.936296 40.963V5.85185C0.936296 3.16 3.16 0.936296 5.85185 0.936296H152.148ZM152.148 0H5.85185C2.57481 0 0 2.69185 0 5.85185V40.963C0 44.24 2.57481 46.8148 5.85185 46.8148H152.148C155.425 46.8148 158 44.24 158 40.963V5.85185C158 2.69185 155.425 0 152.148 0Z" fill="#A6A6A6"/>
<path d="M55.4753 11.9386C55.4753 12.8749 55.2413 13.6942 54.6561 14.2794C53.9539 14.9816 53.1346 15.3327 52.0813 15.3327C51.0279 15.3327 50.2087 14.9816 49.5065 14.2794C48.8042 13.5772 48.4531 12.7579 48.4531 11.7046C48.4531 10.6512 48.8042 9.83197 49.5065 9.12975C50.2087 8.42753 51.0279 8.07642 52.0813 8.07642C52.5494 8.07642 53.0176 8.19345 53.4857 8.42753C53.9539 8.6616 54.305 8.89568 54.539 9.24679L53.9539 9.83197C53.4857 9.24679 52.9005 9.01271 52.0813 9.01271C51.379 9.01271 50.6768 9.24679 50.2087 9.83197C49.6235 10.3001 49.3894 11.0023 49.3894 11.8216C49.3894 12.6409 49.6235 13.3431 50.2087 13.8112C50.7939 14.2794 51.379 14.6305 52.0813 14.6305C52.9005 14.6305 53.4857 14.3964 54.0709 13.8112C54.422 13.4601 54.6561 12.992 54.6561 12.4068H52.0813V11.4705H55.4753V11.9386ZM60.859 9.01271H57.699V11.2364H60.625V12.0557H57.699V14.2794H60.859V15.2157H56.7628V8.19345H60.859V9.01271ZM64.7213 15.2157H63.785V9.01271H61.7953V8.19345H66.7109V9.01271H64.7213V15.2157ZM70.105 15.2157V8.19345H71.0413V15.2157H70.105ZM75.0205 15.2157H74.0842V9.01271H72.0946V8.19345H76.8931V9.01271H74.9035V15.2157H75.0205ZM86.139 14.2794C85.4368 14.9816 84.6176 15.3327 83.5642 15.3327C82.5109 15.3327 81.6916 14.9816 80.9894 14.2794C80.2872 13.5772 79.9361 12.7579 79.9361 11.7046C79.9361 10.6512 80.2872 9.83197 80.9894 9.12975C81.6916 8.42753 82.5109 8.07642 83.5642 8.07642C84.6176 8.07642 85.4368 8.42753 86.139 9.12975C86.8413 9.83197 87.1924 10.6512 87.1924 11.7046C87.1924 12.7579 86.8413 13.5772 86.139 14.2794ZM81.6916 13.6942C82.1598 14.1623 82.862 14.5135 83.5642 14.5135C84.2665 14.5135 84.9687 14.2794 85.4368 13.6942C85.905 13.226 86.2561 12.5238 86.2561 11.7046C86.2561 10.8853 86.022 10.1831 85.4368 9.71493C84.9687 9.24679 84.2665 8.89568 83.5642 8.89568C82.862 8.89568 82.1598 9.12975 81.6916 9.71493C81.2235 10.1831 80.8724 10.8853 80.8724 11.7046C80.8724 12.5238 81.1065 13.226 81.6916 13.6942ZM88.4798 15.2157V8.19345H89.5331L92.9272 13.6942V8.19345H93.8635V15.2157H92.9272L89.2991 9.48086V15.2157H88.4798Z" fill="white" stroke="white" stroke-width="0.234074" stroke-miterlimit="10"/>
<path d="M79.7016 25.5144C76.8927 25.5144 74.669 27.6211 74.669 30.547C74.669 33.3559 76.8927 35.5796 79.7016 35.5796C82.5104 35.5796 84.7342 33.4729 84.7342 30.547C84.7342 27.504 82.5104 25.5144 79.7016 25.5144ZM79.7016 33.4729C78.1801 33.4729 76.8927 32.1855 76.8927 30.43C76.8927 28.6744 78.1801 27.387 79.7016 27.387C81.223 27.387 82.5104 28.5574 82.5104 30.43C82.5104 32.1855 81.223 33.4729 79.7016 33.4729ZM68.8171 25.5144C66.0082 25.5144 63.7845 27.6211 63.7845 30.547C63.7845 33.3559 66.0082 35.5796 68.8171 35.5796C71.626 35.5796 73.8497 33.4729 73.8497 30.547C73.8497 27.504 71.626 25.5144 68.8171 25.5144ZM68.8171 33.4729C67.2956 33.4729 66.0082 32.1855 66.0082 30.43C66.0082 28.6744 67.2956 27.387 68.8171 27.387C70.3386 27.387 71.626 28.5574 71.626 30.43C71.626 32.1855 70.3386 33.4729 68.8171 33.4729ZM55.826 27.0359V29.1426H60.8586C60.7416 30.3129 60.2734 31.2492 59.6882 31.8344C58.986 32.5366 57.8156 33.3559 55.826 33.3559C52.666 33.3559 50.3253 30.8981 50.3253 27.7381C50.3253 24.5781 52.783 22.1203 55.826 22.1203C57.4645 22.1203 58.7519 22.8226 59.6882 23.6418L61.2097 22.1203C59.9223 20.95 58.2838 20.0137 55.943 20.0137C51.7297 20.0137 48.1016 23.5248 48.1016 27.7381C48.1016 31.9514 51.7297 35.4626 55.943 35.4626C58.2838 35.4626 59.9223 34.7603 61.3267 33.2389C62.7312 31.8344 63.1993 29.8448 63.1993 28.3233C63.1993 27.8552 63.1993 27.387 63.0823 27.0359H55.826ZM108.961 28.6744C108.493 27.504 107.322 25.5144 104.747 25.5144C102.173 25.5144 100.066 27.504 100.066 30.547C100.066 33.3559 102.173 35.5796 104.982 35.5796C107.205 35.5796 108.61 34.1752 109.078 33.3559L107.439 32.1855C106.854 33.0048 106.152 33.59 104.982 33.59C103.811 33.59 103.109 33.1218 102.524 32.0685L109.195 29.2596L108.961 28.6744ZM102.173 30.3129C102.173 28.4403 103.694 27.387 104.747 27.387C105.567 27.387 106.386 27.8552 106.62 28.4403L102.173 30.3129ZM96.6719 35.1114H98.8956V20.4818H96.6719V35.1114ZM93.1608 26.5677C92.5756 25.9826 91.6393 25.3974 90.469 25.3974C88.0112 25.3974 85.6704 27.6211 85.6704 30.43C85.6704 33.2389 87.8942 35.3455 90.469 35.3455C91.6393 35.3455 92.5756 34.7603 93.0438 34.1752H93.1608V34.8774C93.1608 36.75 92.1075 37.8033 90.469 37.8033C89.1816 37.8033 88.2453 36.867 88.0112 36.0477L86.1386 36.867C86.7238 38.1544 88.1282 39.7929 90.586 39.7929C93.1608 39.7929 95.2675 38.2714 95.2675 34.6433V25.7485H93.1608V26.5677ZM90.586 33.4729C89.0645 33.4729 87.7771 32.1855 87.7771 30.43C87.7771 28.6744 89.0645 27.387 90.586 27.387C92.1075 27.387 93.2779 28.6744 93.2779 30.43C93.2779 32.1855 92.1075 33.4729 90.586 33.4729ZM119.143 20.4818H113.876V35.1114H116.1V29.6107H119.143C121.601 29.6107 123.942 27.8552 123.942 25.0463C123.942 22.2374 121.601 20.4818 119.143 20.4818ZM119.26 27.504H116.1V22.4714H119.26C120.899 22.4714 121.835 23.8759 121.835 24.9292C121.718 26.2166 120.782 27.504 119.26 27.504ZM132.719 25.3974C131.081 25.3974 129.442 26.0996 128.857 27.6211L130.847 28.4403C131.315 27.6211 132.017 27.387 132.836 27.387C134.007 27.387 135.06 28.0892 135.177 29.2596V29.3766C134.826 29.1426 133.89 28.7914 132.953 28.7914C130.847 28.7914 128.74 29.9618 128.74 32.0685C128.74 34.0581 130.496 35.3455 132.368 35.3455C133.89 35.3455 134.592 34.6433 135.177 33.9411H135.294V35.1114H137.401V29.4937C137.167 26.9189 135.177 25.3974 132.719 25.3974ZM132.485 33.4729C131.783 33.4729 130.73 33.1218 130.73 32.1855C130.73 31.0152 132.017 30.664 133.07 30.664C134.007 30.664 134.475 30.8981 135.06 31.1322C134.826 32.5366 133.656 33.4729 132.485 33.4729ZM144.774 25.7485L142.316 32.0685H142.199L139.625 25.7485H137.284L141.146 34.6433L138.922 39.5589H141.146L147.115 25.7485H144.774ZM125.112 35.1114H127.336V20.4818H125.112V35.1114Z" fill="white"/>
<path d="M12.1713 8.7793C11.8202 9.13041 11.7031 9.71559 11.7031 10.4178V36.283C11.7031 36.9852 11.9372 37.5704 12.2883 37.9215L12.4053 38.0386L26.9179 23.526V23.2919L12.1713 8.7793Z" fill="url(#paint0_linear_3_89)"/>
<path d="M31.5993 28.4411L26.8008 23.6425V23.2914L31.5993 18.4929L31.7163 18.61L37.4512 21.887C39.0897 22.8233 39.0897 24.3448 37.4512 25.2811L31.5993 28.4411Z" fill="url(#paint1_linear_3_89)"/>
<path d="M31.7171 28.3235L26.8015 23.408L12.1719 38.0376C12.7571 38.6228 13.5763 38.6228 14.6297 38.1546L31.7171 28.3235Z" fill="url(#paint2_linear_3_89)"/>
<path d="M31.7171 18.4931L14.6297 8.77902C13.5763 8.19383 12.7571 8.31087 12.1719 8.89605L26.8015 23.4086L31.7171 18.4931Z" fill="url(#paint3_linear_3_89)"/>
<path opacity="0.2" d="M31.6 28.2068L14.6297 37.8038C13.6934 38.389 12.8741 38.272 12.2889 37.8038L12.1719 37.9209L12.2889 38.0379C12.8741 38.506 13.6934 38.6231 14.6297 38.0379L31.6 28.2068Z" fill="black"/>
<path opacity="0.12" d="M12.1713 37.8035C11.8202 37.4524 11.7031 36.8672 11.7031 36.165V36.282C11.7031 36.9843 11.9372 37.5694 12.2883 37.9206V37.8035H12.1713ZM37.4513 24.9294L31.5994 28.2065L31.7165 28.3235L37.4513 25.0465C38.2705 24.5783 38.6216 23.9931 38.6216 23.408C38.6216 23.9931 38.1535 24.4613 37.4513 24.9294Z" fill="black"/>
<path opacity="0.25" d="M14.6291 8.89568L37.4513 21.8868C38.1535 22.3549 38.6216 22.8231 38.6216 23.4083C38.6216 22.8231 38.2705 22.2379 37.4513 21.7698L14.6291 8.77864C12.9905 7.84234 11.7031 8.54457 11.7031 10.4172V10.5342C11.7031 8.77864 12.9905 7.95938 14.6291 8.89568Z" fill="white"/>
<defs>
<linearGradient id="paint0_linear_3_89" x1="25.5135" y1="10.1954" x2="5.87117" y2="29.8366" gradientUnits="userSpaceOnUse">
<stop stop-color="#00A0FF"/>
<stop offset="0.007" stop-color="#00A1FF"/>
<stop offset="0.26" stop-color="#00BEFF"/>
<stop offset="0.512" stop-color="#00D2FF"/>
<stop offset="0.76" stop-color="#00DFFF"/>
<stop offset="1" stop-color="#00E3FF"/>
</linearGradient>
<linearGradient id="paint1_linear_3_89" x1="39.5976" y1="23.4096" x2="11.2782" y2="23.4096" gradientUnits="userSpaceOnUse">
<stop stop-color="#FFE000"/>
<stop offset="0.409" stop-color="#FFBD00"/>
<stop offset="0.775" stop-color="#FFA500"/>
<stop offset="1" stop-color="#FF9C00"/>
</linearGradient>
<linearGradient id="paint2_linear_3_89" x1="29.0568" y1="26.0951" x2="2.42152" y2="52.7304" gradientUnits="userSpaceOnUse">
<stop stop-color="#FF3A44"/>
<stop offset="1" stop-color="#C31162"/>
</linearGradient>
<linearGradient id="paint3_linear_3_89" x1="8.54022" y1="0.207225" x2="20.4347" y2="12.1017" gradientUnits="userSpaceOnUse">
<stop stop-color="#32A071"/>
<stop offset="0.069" stop-color="#2DA771"/>
<stop offset="0.476" stop-color="#15CF74"/>
<stop offset="0.801" stop-color="#06E775"/>
<stop offset="1" stop-color="#00F076"/>
</linearGradient>
</defs>
</svg>
