<svg width="24" height="25" viewBox="0 0 24 25" fill="none" xmlns="http://www.w3.org/2000/svg">
<g clip-path="url(#clip0_3_290)">
<path d="M18.375 0.665527H5.625C2.5184 0.665527 0 3.18393 0 6.29053V19.0405C0 22.1471 2.5184 24.6655 5.625 24.6655H18.375C21.4816 24.6655 24 22.1471 24 19.0405V6.29053C24 3.18393 21.4816 0.665527 18.375 0.665527Z" fill="url(#paint0_radial_3_290)"/>
<path d="M18.375 0.665527H5.625C2.5184 0.665527 0 3.18393 0 6.29053V19.0405C0 22.1471 2.5184 24.6655 5.625 24.6655H18.375C21.4816 24.6655 24 22.1471 24 19.0405V6.29053C24 3.18393 21.4816 0.665527 18.375 0.665527Z" fill="url(#paint1_radial_3_290)"/>
<path d="M12.0008 3.29053C9.45478 3.29053 9.13519 3.30168 8.13525 3.34715C7.13719 3.3929 6.45591 3.55087 5.85984 3.78271C5.24316 4.02215 4.72013 4.3425 4.19906 4.86375C3.67753 5.3849 3.35719 5.90793 3.117 6.52434C2.8845 7.12059 2.72634 7.80215 2.68144 8.79975C2.63672 9.79978 2.625 10.1195 2.625 12.6656C2.625 15.2118 2.63625 15.5303 2.68163 16.5303C2.72756 17.5283 2.88553 18.2096 3.11719 18.8057C3.35681 19.4224 3.67716 19.9454 4.19841 20.4665C4.71938 20.988 5.24241 21.3091 5.85862 21.5485C6.45516 21.7804 7.13653 21.9383 8.13441 21.9841C9.13444 22.0296 9.45375 22.0407 11.9997 22.0407C14.5461 22.0407 14.8646 22.0296 15.8646 21.9841C16.8626 21.9383 17.5447 21.7804 18.1412 21.5485C18.7576 21.3091 19.2799 20.988 19.8007 20.4665C20.3223 19.9454 20.6425 19.4224 20.8828 18.806C21.1133 18.2096 21.2715 17.5282 21.3184 16.5305C21.3633 15.5305 21.375 15.2118 21.375 12.6656C21.375 10.1195 21.3633 9.79996 21.3184 8.79993C21.2715 7.80187 21.1133 7.12068 20.8828 6.52462C20.6425 5.90793 20.3223 5.3849 19.8007 4.86375C19.2793 4.34231 18.7578 4.02196 18.1406 3.78281C17.543 3.55087 16.8613 3.39281 15.8632 3.34715C14.8632 3.30168 14.5448 3.29053 11.9979 3.29053H12.0008ZM11.1598 4.98C11.4095 4.97962 11.688 4.98 12.0008 4.98C14.5041 4.98 14.8007 4.989 15.7892 5.0339C16.7032 5.07571 17.1994 5.22843 17.5298 5.35678C17.9674 5.52665 18.2793 5.72981 18.6072 6.05803C18.9353 6.38615 19.1384 6.69862 19.3088 7.13615C19.4371 7.46615 19.59 7.96228 19.6316 8.87634C19.6765 9.86465 19.6863 10.1615 19.6863 12.6635C19.6863 15.1655 19.6765 15.4624 19.6316 16.4506C19.5898 17.3647 19.4371 17.8608 19.3088 18.1909C19.1389 18.6284 18.9353 18.9399 18.6072 19.2679C18.2791 19.596 17.9676 19.7991 17.5298 19.969C17.1997 20.0979 16.7032 20.2503 15.7892 20.2921C14.8009 20.337 14.5041 20.3467 12.0008 20.3467C9.49753 20.3467 9.20081 20.337 8.21259 20.2921C7.29853 20.2499 6.80241 20.0972 6.47166 19.9688C6.03422 19.7989 5.72166 19.5958 5.39353 19.2677C5.06541 18.9396 4.86234 18.6278 4.692 18.1901C4.56366 17.86 4.41075 17.3639 4.36913 16.4498C4.32422 15.4615 4.31522 15.1647 4.31522 12.6611C4.31522 10.1575 4.32422 9.86231 4.36913 8.874C4.41094 7.95993 4.56366 7.46381 4.692 7.13334C4.86197 6.69581 5.06541 6.38334 5.39363 6.05521C5.72184 5.72709 6.03422 5.52393 6.47175 5.35368C6.80222 5.22478 7.29853 5.07243 8.21259 5.03043C9.07744 4.99134 9.41259 4.97962 11.1598 4.97765V4.98ZM17.0052 6.53662C16.3841 6.53662 15.8802 7.04006 15.8802 7.66125C15.8802 8.28234 16.3841 8.78625 17.0052 8.78625C17.6263 8.78625 18.1302 8.28234 18.1302 7.66125C18.1302 7.04015 17.6263 6.53625 17.0052 6.53625V6.53662ZM12.0008 7.85109C9.34209 7.85109 7.18641 10.0068 7.18641 12.6656C7.18641 15.3245 9.34209 17.4791 12.0008 17.4791C14.6597 17.4791 16.8146 15.3245 16.8146 12.6656C16.8146 10.0069 14.6595 7.85109 12.0007 7.85109H12.0008ZM12.0008 9.54056C13.7267 9.54056 15.1259 10.9396 15.1259 12.6656C15.1259 14.3915 13.7267 15.7907 12.0008 15.7907C10.275 15.7907 8.87588 14.3915 8.87588 12.6656C8.87588 10.9396 10.2749 9.54056 12.0008 9.54056Z" fill="white"/>
</g>
<defs>
<radialGradient id="paint0_radial_3_290" cx="0" cy="0" r="1" gradientUnits="userSpaceOnUse" gradientTransform="translate(6.375 26.514) rotate(-90) scale(23.7858 22.1227)">
<stop stop-color="#FFDD55"/>
<stop offset="0.1" stop-color="#FFDD55"/>
<stop offset="0.5" stop-color="#FF543E"/>
<stop offset="1" stop-color="#C837AB"/>
</radialGradient>
<radialGradient id="paint1_radial_3_290" cx="0" cy="0" r="1" gradientUnits="userSpaceOnUse" gradientTransform="translate(-4.02009 2.39437) rotate(78.681) scale(10.6324 43.827)">
<stop stop-color="#3771C8"/>
<stop offset="0.128" stop-color="#3771C8"/>
<stop offset="1" stop-color="#6600FF" stop-opacity="0"/>
</radialGradient>
<clipPath id="clip0_3_290">
<rect width="24" height="24" fill="white" transform="translate(0 0.665527)"/>
</clipPath>
</defs>
</svg>
