<svg width="432" height="432" viewBox="0 0 432 432" fill="none" xmlns="http://www.w3.org/2000/svg">
<g clip-path="url(#clip0_3_273)">
<path d="M0 0V149.538H149.538V0H0ZM182.769 0V33.2308H216V0H182.769ZM216 33.2308V66.4615H182.769V132.923H216V99.6923H249.231V33.2308H216ZM216 132.923V182.769H66.4615V216H33.2308V249.231H99.6923V216H132.923V249.231H216V216H249.231V249.231H299.077V216H332.308V182.769H249.231V132.923H216ZM332.308 216V249.231H432V216H398.769V182.769H365.538V216H332.308ZM33.2308 216V182.769H0V216H33.2308ZM282.462 0V149.538H432V0H282.462ZM33.2308 33.2308H116.308V116.308H33.2308V33.2308ZM315.692 33.2308H398.769V116.308H315.692V33.2308ZM49.8462 49.8462V99.6923H99.6923V49.8462H49.8462ZM332.308 49.8462V99.6923H382.154V49.8462H332.308ZM182.769 265.846V299.077H216V265.846H182.769ZM216 299.077V332.308H182.769V398.769H216V365.538H282.462V332.308H315.692V299.077H348.923V332.308H315.692V365.538H282.462V432H315.692V398.769H348.923V365.538H365.538V398.769H348.923V432H382.154V398.769H398.769V365.538H432V299.077H398.769V265.846H282.462V299.077H216ZM398.769 398.769V432H432V398.769H398.769ZM216 398.769V432H249.231V398.769H216ZM0 282.462V432H149.538V282.462H0ZM33.2308 315.692H116.308V398.769H33.2308V315.692ZM49.8462 332.308V382.154H99.6923V332.308H49.8462Z" fill="#1F2336"/>
</g>
<defs>
<clipPath id="clip0_3_273">
<rect width="432" height="432" fill="white"/>
</clipPath>
</defs>
</svg>
