<svg width="1440" height="334" viewBox="0 0 1440 334" fill="none" xmlns="http://www.w3.org/2000/svg">
<path d="M51.4045 2.59318L5.60402 31.4445C2.11601 33.6417 0 37.4755 0 41.5979V322C0 328.627 5.37257 334 12 334H1428C1434.63 334 1440 328.627 1440 322V42.689C1440 37.9897 1437.26 33.7229 1432.98 31.772L1403.72 18.4162C1398.85 16.1961 1393.1 17.4631 1389.62 21.5232L1381.68 30.7847C1379.4 33.4441 1376.08 34.9747 1372.57 34.9747H1346.81C1340.18 34.9747 1334.81 29.6021 1334.81 22.9746V12.6641C1334.81 11.9497 1334.45 11.2818 1333.86 10.8812C1332.43 9.91335 1330.5 10.9376 1330.5 12.6641V15.2446C1330.5 17.5284 1328.36 19.2083 1326.14 18.6662L1299.33 12.1133C1292.02 10.3283 1284.98 15.8592 1284.98 23.3782C1284.98 29.7828 1279.79 34.9747 1273.38 34.9747H1265.78C1260.69 34.9747 1256.16 31.7698 1254.47 26.9759L1251.83 19.5205C1250.13 14.7265 1245.6 11.5217 1240.52 11.5217H1230.35C1224.41 11.5217 1219.35 15.8792 1218.48 21.7632L1218.04 24.7332C1217.17 30.6172 1212.12 34.9747 1206.17 34.9747H1169.45C1166.09 34.9747 1162.89 33.569 1160.61 31.0988L1149.07 18.5433C1146.79 16.0731 1143.59 14.6674 1140.23 14.6674H1097.29C1094.82 14.6674 1092.42 15.4261 1090.4 16.8403L1067.62 32.8017C1065.61 34.216 1063.2 34.9747 1060.74 34.9747H1023.82C1017.7 34.9747 1013.24 29.1607 1014.84 23.2482C1016.43 17.3357 1011.98 11.5217 1005.85 11.5217H965.284C959.86 11.5217 955.11 15.16 953.698 20.3967L952.16 26.0996C950.747 31.3364 945.997 34.9747 940.574 34.9747H904.864C901.707 34.9747 898.678 33.7308 896.432 31.5125L876.383 11.712C870.02 5.42713 859.265 8.06211 856.527 16.5767L853.289 26.6478C851.694 31.6099 847.077 34.9747 841.865 34.9747H798.853C796.189 34.9747 793.601 34.0884 791.496 32.4555L778.806 22.6088C774.5 19.2681 768.484 19.2481 764.157 22.56L751.162 32.5043C749.069 34.1065 746.506 34.9747 743.869 34.9747H661.376C659.068 34.9747 656.808 34.3089 654.869 33.0572L629.806 16.8822C624.982 13.7687 618.628 14.5089 614.649 18.6479L602.493 31.2915C600.23 33.6447 597.107 34.9747 593.842 34.9747H564.646C558.018 34.9747 552.646 29.6021 552.646 22.9747V21.7802C552.646 11.9324 541.439 6.27697 533.517 12.1273L528.772 15.6316C527.6 16.4968 526.596 17.568 525.808 18.7929L523.169 22.8971C519.122 29.1887 510.367 30.2844 504.895 25.1843L499.736 20.3769C494.614 15.6037 486.511 16.2106 482.157 21.6934L475.215 30.4369C472.938 33.3037 469.478 34.9747 465.817 34.9747H444.689C442.228 34.9747 439.827 34.2183 437.811 32.8082L408.359 12.2094C403.764 8.99505 397.554 9.39267 393.406 13.1669L374.787 30.1075C371.496 33.1014 366.819 34.0292 362.635 32.5181L323.892 18.5264C321.067 17.5062 317.962 17.5825 315.191 18.74L278.543 34.0476C277.077 34.6595 275.505 34.9747 273.918 34.9747H235.474C228.847 34.9747 223.474 29.6021 223.474 22.9747V12.3282C223.474 5.70081 218.102 0.328232 211.474 0.328232H195.166C188.562 0.328232 183.209 5.68173 183.209 12.2856C183.209 21.9051 172.427 27.5869 164.492 22.1494L151.417 13.1896C149.818 12.094 147.978 11.402 146.053 11.1727L59.2196 0.830794C56.4896 0.505645 53.7307 1.1278 51.4045 2.59318Z" fill="white"/>
</svg>
